<svg width="36" height="36" viewBox="0 0 36 36" fill="none" xmlns="http://www.w3.org/2000/svg">
<mask id="mask0_1_53" style="mask-type:luminance" maskUnits="userSpaceOnUse" x="0" y="0" width="36" height="36">
<path d="M36 0.29718H0V35.9895H36V0.29718Z" fill="white"/>
</mask>
<g mask="url(#mask0_1_53)">
<path d="M17.3626 0.808994C17.7729 0.799644 17.8591 0.797693 18.0001 0.797287L18.0273 1.00294L18.0931 1.49861C20.0026 1.24541 21.8272 1.36688 23.5067 1.79848C23.7729 1.97501 23.8297 2.08314 23.8409 2.11573C23.8357 2.12653 23.8231 2.148 23.7937 2.18024C23.7397 2.23931 23.6516 2.30944 23.5252 2.38519C22.9999 2.69994 22.1775 2.90365 21.9884 2.94599L21.9884 2.94598L21.9855 2.94664C19.8188 3.44507 17.0563 3.42991 14.9645 3.0926C13.9124 2.92294 13.0801 2.67943 12.5873 2.40991C12.3352 2.27203 12.2334 2.16016 12.2029 2.1044C12.202 2.10265 12.2007 2.10134 12.1996 2.10008C12.1941 2.09412 12.1897 2.08933 12.2181 2.04497C12.2735 1.95875 12.6567 1.49942 14.5007 1.14427C14.8427 1.07999 15.3113 1.00341 15.6607 0.949589C16.2631 0.879321 16.2649 0.879177 16.5469 0.85682L16.5545 0.856212C17.0995 0.820588 17.1003 0.820554 17.3614 0.809048L17.3626 0.808994ZM23.8435 2.1262C23.8434 2.1262 23.8432 2.12522 23.8431 2.12324C23.8435 2.12521 23.8436 2.1262 23.8435 2.1262Z" fill="black" stroke="black"/>
<path d="M23.7099 1.33471C25.6751 2.56527 22.4749 3.34945 22.0976 3.43391C17.6136 4.46542 10.7811 3.36151 11.7972 1.77506C11.9675 1.50964 12.5273 1.01501 14.4073 0.653079C14.7602 0.586725 15.2408 0.508306 15.5937 0.454017C16.2142 0.381629 16.2142 0.381629 16.5185 0.357503C17.0721 0.321309 17.0721 0.321309 17.3459 0.309245C17.8752 0.29718 17.8752 0.29718 18.1369 0.29718C18.6601 0.309245 18.6601 0.309245 18.9156 0.321309C19.4449 0.351469 19.4571 0.357503 19.7309 0.381629C20.2967 0.441952 20.3211 0.447983 20.6253 0.490211C21.2763 0.592756 21.3006 0.598789 21.6535 0.671174L22.0368 0.755623C22.5479 0.876269 23.1259 1.02104 23.7099 1.33471C21.9455 0.864205 20.029 0.737528 18.0273 1.00294C20.029 0.737528 21.9455 0.870236 23.7099 1.33471Z" fill="black" fill-opacity="0.2"/>
<mask id="path-4-inside-1_1_53" fill="white">
<path d="M26.8738 2.61958C26.387 2.3421 25.876 2.10081 25.3527 1.88365C25.1702 1.78714 24.9208 1.67253 24.7261 1.58807C25.9368 2.11287 26.0341 2.16113 26.8738 2.61958Z"/>
</mask>
<path d="M26.8738 2.61958C26.387 2.3421 25.876 2.10081 25.3527 1.88365C25.1702 1.78714 24.9208 1.67253 24.7261 1.58807C25.9368 2.11287 26.0341 2.16113 26.8738 2.61958Z" fill="black"/>
<path d="M26.8738 2.61958L26.3945 3.49726L27.369 1.75084L26.8738 2.61958ZM25.3527 1.88365L24.8853 2.76766L24.9264 2.78942L24.9694 2.80726L25.3527 1.88365ZM24.7261 1.58807L25.1238 0.670557L24.3281 2.50547L24.7261 1.58807ZM27.369 1.75084C26.838 1.44807 26.2879 1.18905 25.736 0.960036L24.9694 2.80726C25.4641 3.01257 25.9361 3.23612 26.3785 3.48831L27.369 1.75084ZM25.8202 0.999639C25.6047 0.885684 25.3285 0.759371 25.124 0.670675L24.3281 2.50547C24.513 2.58568 24.7357 2.68859 24.8853 2.76766L25.8202 0.999639ZM24.3284 2.50559C25.5193 3.02181 25.5881 3.05696 26.3945 3.49726L27.353 1.74189C26.4802 1.2653 26.3543 1.20394 25.1238 0.670557L24.3284 2.50559Z" fill="black" mask="url(#path-4-inside-1_1_53)"/>
<path d="M26.8738 2.61958C26.387 2.3421 25.876 2.10081 25.3527 1.88365C25.1702 1.78714 24.9208 1.67253 24.7261 1.58807C25.9368 2.11287 26.0341 2.16113 26.8738 2.61958Z" fill="black" fill-opacity="0.2"/>
<path d="M9.38232 3.048C9.08654 3.21548 8.80743 3.38231 8.52873 3.54933C7.48517 4.23924 7.3151 4.37951 6.17377 5.35113L5.75312 5.74467C5.4075 6.07864 5.37017 6.32908 5.42895 6.52447C5.50411 6.77427 5.78804 7.12963 6.49394 7.52838C7.9932 8.37374 10.6668 9.00443 13.826 9.30752C16.9665 9.60882 20.5178 9.58014 23.7289 9.1513L23.7294 9.15124C26.5985 8.77096 28.6479 8.14282 29.7566 7.45015C30.3175 7.09968 30.5546 6.78453 30.6163 6.5544C30.665 6.37269 30.6327 6.12885 30.2944 5.79799L29.8708 5.40168C28.5727 4.24733 27.8223 3.78398 26.6885 3.09216C26.6568 3.28522 26.5783 3.46094 26.4714 3.61618C26.2195 3.9822 25.7915 4.26325 25.312 4.48532C24.3386 4.93609 22.8945 5.25947 21.2892 5.44382C18.0794 5.81242 14.0056 5.64815 11.3191 4.65056L9.38232 3.048ZM9.38232 3.048C9.41633 3.2225 9.48987 3.37701 9.57824 3.50844C9.80054 3.83903 10.1592 4.08691 10.4646 4.25942C10.7823 4.43888 11.106 4.57155 11.3189 4.65049L9.38232 3.048Z" fill="black" stroke="black"/>
<path d="M26.8737 2.61943C28.0601 3.3433 28.8449 3.81982 30.2078 5.03229L30.6398 5.43644C32.3373 7.08927 29.575 8.88081 23.7951 9.6469C17.2911 10.5155 9.43645 9.76152 6.24837 7.96392C4.76383 7.12545 4.55087 6.20856 5.40873 5.38216L5.84073 4.97801C7.00278 3.98872 7.18533 3.83792 8.26222 3.12613C9.0775 2.63753 9.91711 2.13685 11.1704 1.61809L11.3591 1.53967C8.33522 2.81849 10.6959 3.88619 11.4929 4.18176C16.6584 6.09998 27.4334 4.86339 26.0888 2.50482C25.9185 2.20924 25.596 2.01018 25.3526 1.86541C25.882 2.10066 26.387 2.34798 26.8737 2.61943Z" fill="black" fill-opacity="0.2"/>
<path d="M2.6361 9.82974C2.96767 9.27893 3.18175 8.92341 3.35107 8.65435C3.63197 9.16571 4.16094 9.61182 4.85898 10.0042C6.70295 11.0439 9.81841 11.7508 13.3176 12.0864C16.8354 12.4237 20.8118 12.3921 24.421 11.9101L24.4211 11.9101C27.4887 11.4999 29.8477 10.8255 31.2765 9.99574C31.9034 9.63169 32.4052 9.20691 32.681 8.71271C32.9499 9.10508 33.0878 9.34716 33.3788 9.87336C33.4119 9.9399 33.4436 10.0038 33.4741 10.0651C34.1778 11.481 34.215 11.5559 34.5352 12.4697C34.5356 12.4706 34.5359 12.4716 34.5363 12.4726L34.6842 12.9126C34.6845 12.9136 34.6848 12.9145 34.6851 12.9155C34.7749 13.1979 34.7272 13.5011 34.4508 13.8564C34.1607 14.2295 33.6361 14.6295 32.8443 15.0225C31.2664 15.8058 28.7815 16.4868 25.518 16.9208L25.5177 16.9209C21.2905 17.4855 16.6152 17.5232 12.4799 17.1269C8.32584 16.7288 4.78674 15.899 2.78857 14.7731L2.7884 14.773C2.10544 14.3886 1.69014 14.0187 1.47388 13.6903C1.27048 13.3815 1.2429 13.1139 1.32642 12.8564L1.47335 12.4194L1.49824 12.357C2.13396 10.764 2.15826 10.7032 2.6361 9.82974Z" fill="black" stroke="black"/>
<path d="M32.2157 7.20405C33.2438 8.62159 33.3047 8.70605 33.8217 9.64103C34.6249 11.2577 34.6615 11.318 35.0081 12.3073L35.1602 12.7597C35.7688 14.6538 32.1607 16.5418 25.5839 17.4165C17.0478 18.5566 6.72902 17.5673 2.54312 15.2087C1.10726 14.4004 0.577936 13.5378 0.851726 12.6993L1.00383 12.2469C1.67309 10.57 1.69742 10.5036 2.20241 9.5807C3.12111 8.05457 3.15763 7.99426 3.82081 7.14974L3.97899 6.95673C3.2854 7.80725 3.60177 8.72414 5.10455 9.56863C8.60294 11.5412 17.2181 12.3676 24.3548 11.4145C30.4451 10.6001 33.4812 8.76033 32.0695 7.011L32.2157 7.20405Z" fill="black" fill-opacity="0.2"/>
<path d="M0.56956 16.6319C0.548312 16.9668 0.529281 17.4143 0.500137 18.1232C0.517946 19.4526 0.545761 19.6642 0.803155 21.4032C0.886265 21.8114 1.3038 22.3552 2.34418 22.9405C4.40361 24.0968 8.04336 24.9492 12.3126 25.3585C16.5636 25.7662 21.3698 25.7284 25.7186 25.1488C28.6782 24.7539 31.0182 24.1634 32.6459 23.4746C33.4603 23.1299 34.0772 22.7686 34.5021 22.4097C34.9298 22.0483 35.1269 21.7206 35.1807 21.4464L35.1813 21.4434L35.2165 21.2691C35.4166 20.1205 35.4218 20.0257 35.5 18.1601C35.5 17.5164 35.4963 17.2543 35.436 16.6967C34.9807 17.1539 34.3408 17.569 33.558 17.9425C31.7955 18.7833 29.1763 19.4742 25.869 19.9148C21.4385 20.5054 16.5542 20.5446 12.2333 20.1311C7.93117 19.7194 4.11749 18.8527 1.87185 17.5867L0.56956 16.6319ZM0.56956 16.6319C0.911035 16.9758 1.35375 17.2948 1.87175 17.5867L0.56956 16.6319Z" fill="black" stroke="black"/>
<path d="M35.7505 15.1605C35.9879 17.0244 36 17.0968 36 18.1705C35.9209 20.0586 35.915 20.1732 35.708 21.3616L35.6713 21.5425C35.3368 23.2496 31.7532 24.8481 25.7847 25.6444C17.0053 26.8146 6.40663 25.7952 2.09904 23.3763C1.01606 22.7671 0.431975 22.1216 0.310292 21.4882C0.0486732 19.7208 0.0182525 19.4916 0 18.1163C0.0790942 16.192 0.0851782 16.1498 0.261619 15.1062L0.328543 14.7443C0.170357 15.5465 0.736184 16.373 2.11729 17.1511C6.4188 19.576 17.0235 20.5894 25.8029 19.4192C32.3677 18.5445 36.0487 16.6927 35.6897 14.7986L35.7505 15.1605Z" fill="black" fill-opacity="0.2"/>
<path d="M31.6468 28.9982L31.6398 29.0061L31.6331 29.0143C31.2631 29.4686 30.4636 29.9646 29.184 30.4171C27.9232 30.863 26.2616 31.2442 24.2463 31.5127L24.2461 31.5127C20.7217 31.9837 16.8221 32.0154 13.3728 31.6847C9.90511 31.3522 6.96253 30.6598 5.30805 29.7272C4.83578 29.4596 4.52222 29.2033 4.33 28.973C3.9441 28.4528 3.44489 27.7709 3.09782 27.2415L3.0666 27.1866C2.56876 26.311 2.35312 25.9317 2.18091 25.5796C2.21526 25.5996 2.24999 25.6195 2.2851 25.6394L2.28553 25.6396C4.47323 26.8723 8.1849 27.7164 12.37 28.1176C16.5738 28.5205 21.3259 28.4829 25.6378 27.9074C28.467 27.5301 30.7755 26.9659 32.4552 26.2816C32.948 26.0808 33.3921 25.8675 33.7823 25.6422C33.6382 25.9538 33.5116 26.1852 33.2751 26.6094L33.2673 26.6221C32.3515 28.1021 32.3199 28.153 31.6804 28.9603L31.6468 28.9982Z" fill="black" stroke="black"/>
<path d="M34.9291 24.2087C34.2416 25.8796 34.2174 25.9459 33.7063 26.8628C32.7694 28.3769 32.7328 28.4372 32.0636 29.2817L32.0208 29.33C31.1022 30.458 28.3887 31.4653 24.3123 32.0083C17.1816 32.9613 8.56039 32.1348 5.06199 30.1624C4.55092 29.8729 4.17977 29.5773 3.93643 29.2817C3.54704 28.7569 3.02988 28.0512 2.67092 27.5023C1.78262 25.9399 1.74612 25.8796 1.33848 24.9084C1.18638 24.4982 0.967348 23.9493 0.833496 23.5331C1.01602 24.1001 1.56968 24.6611 2.53098 25.204C6.71688 27.5626 17.0295 28.5518 25.5717 27.4118C31.1813 26.6638 34.6249 25.1859 35.142 23.5874L34.9291 24.2087Z" fill="black" fill-opacity="0.2"/>
<path d="M9.37665 33.228C9.25476 33.1539 9.14272 33.0857 9.03868 33.0222C10.4125 33.3683 12.0023 33.6246 13.688 33.7863C16.8978 34.0942 20.5259 34.0655 23.8187 33.6257L23.8189 33.6257C24.9778 33.4706 26.0234 33.2747 26.9427 33.0457C26.2368 33.4539 25.5263 33.8394 24.4988 34.2519C23.7814 34.5339 22.7719 34.7853 21.5037 34.9506L21.5023 34.9508C19.7055 35.1901 17.731 35.2276 15.9289 35.0935C14.1227 34.959 12.5268 34.6549 11.4662 34.231C10.3289 33.7385 10.1937 33.6768 9.37665 33.228Z" fill="black" stroke="black"/>
<path d="M30.0193 31.4231C28.8511 32.3945 28.6686 32.5452 27.5734 33.2569C26.7277 33.7517 25.9307 34.216 24.6834 34.7166C23.9168 35.0181 22.8643 35.2775 21.5684 35.4465C17.8996 35.9351 13.5312 35.5975 11.2739 34.6926C10.118 34.192 9.97191 34.1255 9.12622 33.6609C7.89723 32.9132 7.64169 32.7563 6.55871 31.9117C6.19973 31.592 5.71302 31.1757 5.36621 30.844C5.57917 31.0492 5.85904 31.2483 6.20582 31.4474C9.39393 33.2449 17.2486 33.9988 23.7526 33.1301C27.2205 32.6658 29.6055 31.8394 30.5912 30.8923L30.0193 31.4231Z" fill="black" fill-opacity="0.2"/>
<mask id="path-17-inside-2_1_53" fill="white">
<path d="M20.4002 35.8326C19.7796 35.9049 19.7796 35.9049 19.4754 35.9289C18.9217 35.9652 18.9217 35.9652 18.6479 35.9772C18.1247 35.9895 18.1247 35.9895 17.8631 35.9895C17.3398 35.9772 17.3398 35.9772 17.0843 35.9652C16.555 35.9351 16.5428 35.9289 16.269 35.9049C15.691 35.8446 15.6789 35.8385 15.3746 35.7963C14.7237 35.6938 14.6993 35.6877 14.3464 35.6154L13.9631 35.5311C16.336 36.0255 19.1955 36.0618 21.617 35.6215C20.8322 35.7723 20.753 35.7843 20.4002 35.8326Z"/>
</mask>
<path d="M20.4002 35.8326C19.7796 35.9049 19.7796 35.9049 19.4754 35.9289C18.9217 35.9652 18.9217 35.9652 18.6479 35.9772C18.1247 35.9895 18.1247 35.9895 17.8631 35.9895C17.3398 35.9772 17.3398 35.9772 17.0843 35.9652C16.555 35.9351 16.5428 35.9289 16.269 35.9049C15.691 35.8446 15.6789 35.8385 15.3746 35.7963C14.7237 35.6938 14.6993 35.6877 14.3464 35.6154L13.9631 35.5311C16.336 36.0255 19.1955 36.0618 21.617 35.6215C20.8322 35.7723 20.753 35.7843 20.4002 35.8326Z" fill="black"/>
<path d="M20.4002 35.8326L20.5159 36.8259L20.5259 36.8247L20.5358 36.8234L20.4002 35.8326ZM19.4754 35.9289L19.5408 36.9269L19.554 36.9258L19.4754 35.9289ZM18.6479 35.9772L18.6715 36.9769L18.6816 36.9767L18.6917 36.9763L18.6479 35.9772ZM17.8631 35.9895L17.8396 36.9893L17.8513 36.9895H17.8631V35.9895ZM17.0843 35.9652L17.0274 36.9637L17.0374 36.9641L17.0843 35.9652ZM16.269 35.9049L16.1652 36.8995L16.1735 36.9004L16.1817 36.9011L16.269 35.9049ZM15.3746 35.7963L15.2192 36.7841L15.2283 36.7856L15.2374 36.7868L15.3746 35.7963ZM14.3464 35.6154L14.1316 36.592L14.1387 36.5936L14.1457 36.595L14.3464 35.6154ZM13.9631 35.5311L14.1671 34.5521L13.7483 36.5077L13.9631 35.5311ZM21.617 35.6215L21.8057 36.6036L21.4381 34.6377L21.617 35.6215ZM20.2845 34.8393C19.6663 34.9114 19.6815 34.9095 19.3967 34.932L19.554 36.9258C19.8777 36.9003 19.8929 36.8985 20.5159 36.8259L20.2845 34.8393ZM19.4099 34.9311C18.8578 34.9673 18.8667 34.9667 18.6042 34.9782L18.6917 36.9763C18.9768 36.9638 18.9857 36.9632 19.5408 36.9268L19.4099 34.9311ZM18.6244 34.9775C18.1029 34.9898 18.1125 34.9895 17.8631 34.9895V36.9895C18.1369 36.9895 18.1465 36.9893 18.6715 36.9769L18.6244 34.9775ZM17.8866 34.9898C17.3649 34.9775 17.3745 34.9777 17.1312 34.9663L17.0374 36.9641C17.3052 36.9767 17.3148 36.9769 17.8396 36.9893L17.8866 34.9898ZM17.1412 34.9668C16.6299 34.9377 16.6334 34.933 16.3564 34.9087L16.1817 36.9011C16.4523 36.9248 16.4801 36.9324 17.0274 36.9636L17.1412 34.9668ZM16.3728 34.9103C15.8117 34.8518 15.8128 34.8474 15.5119 34.8058L15.2374 36.7868C15.545 36.8295 15.5703 36.8374 16.1652 36.8995L16.3728 34.9103ZM15.5301 34.8085C14.8898 34.7077 14.8811 34.7042 14.5472 34.6357L14.1457 36.595C14.5175 36.6712 14.5576 36.68 15.2192 36.7841L15.5301 34.8085ZM14.5613 34.6387L14.1779 34.5544L13.7483 36.5077L14.1316 36.592L14.5613 34.6387ZM13.7591 36.51C16.2591 37.031 19.2486 37.0686 21.7959 36.6054L21.4381 34.6377C19.1424 35.0551 16.4129 35.0201 14.1671 34.5521L13.7591 36.51ZM21.4284 34.6395C20.6498 34.789 20.5911 34.7971 20.2645 34.8418L20.5358 36.8234C20.915 36.7715 21.0145 36.7556 21.8057 36.6036L21.4284 34.6395Z" fill="black" mask="url(#path-17-inside-2_1_53)"/>
<path d="M20.4002 35.8326C19.7796 35.9049 19.7796 35.9049 19.4754 35.9289C18.9217 35.9652 18.9217 35.9652 18.6479 35.9772C18.1247 35.9895 18.1247 35.9895 17.8631 35.9895C17.3398 35.9772 17.3398 35.9772 17.0843 35.9652C16.555 35.9351 16.5428 35.9289 16.269 35.9049C15.691 35.8446 15.6789 35.8385 15.3746 35.7963C14.7237 35.6938 14.6993 35.6877 14.3464 35.6154L13.9631 35.5311C16.336 36.0255 19.1955 36.0618 21.617 35.6215C20.8322 35.7723 20.753 35.7843 20.4002 35.8326Z" fill="black" fill-opacity="0.2"/>
</g>
</svg>
