<svg width="20" height="20" viewBox="0 0 20 20" fill="none" xmlns="http://www.w3.org/2000/svg">
<g id="cancel-02">
<path id="Vector" d="M14.3833 8.53889L15.8444 7.07782C16.1841 6.73812 16.354 6.56828 16.4559 6.39159C16.969 5.50302 16.4598 4.77099 15.8444 4.15565C15.229 3.54021 14.497 3.03108 13.6084 3.5441C13.4317 3.64612 13.2619 3.81596 12.9222 4.15565L11.4611 5.61673C10.7724 6.30549 10.428 6.64988 10 6.64988C9.57204 6.64988 9.2277 6.30549 8.53895 5.61673L7.07788 4.15565C6.73818 3.81596 6.56834 3.64612 6.39165 3.5441C5.50301 3.03105 4.77112 3.54025 4.15571 4.15565C3.54031 4.77106 3.03111 5.50296 3.54416 6.39159C3.64618 6.56828 3.81602 6.73812 4.15571 7.07782L5.61679 8.53889C6.30555 9.22764 6.64993 9.57198 6.64993 9.99998C6.64993 10.428 6.30555 10.7723 5.61679 11.4611L4.15571 12.9221C3.81602 13.2618 3.64618 13.4316 3.54416 13.6083C3.03114 14.497 3.54026 15.2289 4.15571 15.8443C4.77105 16.4597 5.50308 16.9689 6.39165 16.4558C6.56834 16.3539 6.73818 16.1841 7.07788 15.8443L8.53895 14.3832C9.2277 13.6945 9.57204 13.3501 10 13.3501C10.428 13.3501 10.7724 13.6945 11.4611 14.3832L12.9222 15.8443C13.2619 16.1841 13.4317 16.3539 13.6084 16.4558C14.497 16.9689 15.229 16.4598 15.8444 15.8443C16.4599 15.229 16.969 14.497 16.4559 13.6083C16.354 13.4316 16.1841 13.2618 15.8444 12.9221C15.177 12.2548 13.3501 11.0146 13.3501 9.99998C13.3501 9.57198 13.6945 9.22764 14.3833 8.53889Z" stroke="#0B0D12" stroke-width="1.5" stroke-linecap="round" stroke-linejoin="round"/>
</g>
</svg>
